<svg
  width="298"
  height="87"
  viewBox="0 0 298 87"
  fill="none"
  xmlns="http://www.w3.org/2000/svg"
>
  <g filter="url(#filter0_d_1_7)">
    <rect
      x="132"
      y="13"
      width="153"
      height="61"
      rx="9"
      fill="#EBF3F6"
      fill-opacity="0.96"
      shape-rendering="crispEdges"
    />
    <rect
      x="132.5"
      y="13.5"
      width="152"
      height="60"
      rx="8.5"
      stroke="#7A8490"
      stroke-opacity="0.22"
      shape-rendering="crispEdges"
    />
    <rect
      x="132.5"
      y="13.5"
      width="152"
      height="60"
      rx="8.5"
      stroke="url(#paint0_linear_1_7)"
      shape-rendering="crispEdges"
    />
  </g>
  <path
    d="M146.276 56V29.8182H156.605C158.591 29.8182 160.283 30.1974 161.68 30.956C163.078 31.706 164.143 32.75 164.876 34.0881C165.618 35.4176 165.989 36.9517 165.989 38.6903C165.989 40.429 165.614 41.9631 164.864 43.2926C164.114 44.6222 163.027 45.6577 161.604 46.3991C160.189 47.1406 158.476 47.5114 156.464 47.5114H149.881V43.0753H155.57C156.635 43.0753 157.513 42.892 158.203 42.5256C158.902 42.1506 159.422 41.6349 159.763 40.9787C160.112 40.3139 160.287 39.5511 160.287 38.6903C160.287 37.821 160.112 37.0625 159.763 36.4148C159.422 35.7585 158.902 35.2514 158.203 34.8935C157.504 34.527 156.618 34.3438 155.544 34.3438H151.811V56H146.276ZM169.482 56V36.3636H174.762V39.7898H174.966C175.324 38.571 175.925 37.6506 176.769 37.0284C177.613 36.3977 178.584 36.0824 179.684 36.0824C179.956 36.0824 180.25 36.0994 180.566 36.1335C180.881 36.1676 181.158 36.2145 181.397 36.2741V41.1065C181.141 41.0298 180.787 40.9616 180.336 40.902C179.884 40.8423 179.471 40.8125 179.096 40.8125C178.294 40.8125 177.578 40.9872 176.948 41.3366C176.326 41.6776 175.831 42.1548 175.465 42.7685C175.107 43.3821 174.928 44.0895 174.928 44.8906V56H169.482ZM192.17 56.3835C190.185 56.3835 188.467 55.9616 187.018 55.1179C185.578 54.2656 184.466 53.081 183.682 51.5639C182.898 50.0384 182.506 48.2699 182.506 46.2585C182.506 44.2301 182.898 42.4574 183.682 40.9403C184.466 39.4148 185.578 38.2301 187.018 37.3864C188.467 36.5341 190.185 36.108 192.17 36.108C194.156 36.108 195.869 36.5341 197.31 37.3864C198.759 38.2301 199.875 39.4148 200.659 40.9403C201.443 42.4574 201.835 44.2301 201.835 46.2585C201.835 48.2699 201.443 50.0384 200.659 51.5639C199.875 53.081 198.759 54.2656 197.31 55.1179C195.869 55.9616 194.156 56.3835 192.17 56.3835ZM192.196 52.1648C193.099 52.1648 193.854 51.9091 194.459 51.3977C195.064 50.8778 195.52 50.1705 195.827 49.2756C196.142 48.3807 196.3 47.3622 196.3 46.2202C196.3 45.0781 196.142 44.0597 195.827 43.1648C195.52 42.2699 195.064 41.5625 194.459 41.0426C193.854 40.5227 193.099 40.2628 192.196 40.2628C191.284 40.2628 190.517 40.5227 189.895 41.0426C189.281 41.5625 188.817 42.2699 188.501 43.1648C188.195 44.0597 188.041 45.0781 188.041 46.2202C188.041 47.3622 188.195 48.3807 188.501 49.2756C188.817 50.1705 189.281 50.8778 189.895 51.3977C190.517 51.9091 191.284 52.1648 192.196 52.1648ZM215.936 36.3636V40.4545H203.817V36.3636H215.936ZM206.591 56V34.9446C206.591 33.5213 206.868 32.3409 207.422 31.4034C207.984 30.4659 208.751 29.7628 209.723 29.294C210.695 28.8253 211.798 28.5909 213.034 28.5909C213.869 28.5909 214.632 28.6548 215.322 28.7827C216.021 28.9105 216.541 29.0256 216.882 29.1278L215.911 33.2188C215.697 33.1506 215.433 33.0866 215.118 33.027C214.811 32.9673 214.496 32.9375 214.172 32.9375C213.371 32.9375 212.812 33.125 212.497 33.5C212.182 33.8665 212.024 34.3821 212.024 35.0469V56H206.591ZM219.263 56V36.3636H224.709V56H219.263ZM221.999 33.8324C221.189 33.8324 220.495 33.5639 219.915 33.027C219.344 32.4815 219.059 31.8295 219.059 31.071C219.059 30.321 219.344 29.6776 219.915 29.1406C220.495 28.5952 221.189 28.3224 221.999 28.3224C222.809 28.3224 223.499 28.5952 224.07 29.1406C224.65 29.6776 224.939 30.321 224.939 31.071C224.939 31.8295 224.65 32.4815 224.07 33.027C223.499 33.5639 222.809 33.8324 221.999 33.8324ZM234.518 29.8182V56H229.072V29.8182H234.518ZM247.829 56.3835C245.809 56.3835 244.071 55.9744 242.613 55.1562C241.164 54.3295 240.048 53.1619 239.264 51.6534C238.48 50.1364 238.088 48.3423 238.088 46.2713C238.088 44.2514 238.48 42.4787 239.264 40.9531C240.048 39.4276 241.152 38.2386 242.575 37.3864C244.007 36.5341 245.686 36.108 247.612 36.108C248.907 36.108 250.113 36.3168 251.23 36.7344C252.355 37.1435 253.335 37.7614 254.17 38.5881C255.014 39.4148 255.67 40.4545 256.139 41.7074C256.608 42.9517 256.842 44.4091 256.842 46.0795V47.5753H240.261V44.2003H251.716C251.716 43.4162 251.545 42.7216 251.204 42.1165C250.863 41.5114 250.39 41.0384 249.785 40.6974C249.189 40.348 248.494 40.1733 247.701 40.1733C246.875 40.1733 246.142 40.3651 245.502 40.7486C244.872 41.1236 244.377 41.6307 244.02 42.2699C243.662 42.9006 243.478 43.6037 243.47 44.3793V47.5881C243.47 48.5597 243.649 49.3991 244.007 50.1065C244.373 50.8139 244.889 51.3594 245.554 51.7429C246.218 52.1264 247.007 52.3182 247.919 52.3182C248.524 52.3182 249.078 52.233 249.581 52.0625C250.083 51.892 250.514 51.6364 250.872 51.2955C251.23 50.9545 251.502 50.5369 251.69 50.0426L256.727 50.375C256.471 51.5852 255.947 52.642 255.154 53.5455C254.37 54.4403 253.356 55.1392 252.112 55.642C250.876 56.1364 249.449 56.3835 247.829 56.3835ZM260.396 56V36.3636H265.676V39.7898H265.88C266.238 38.571 266.839 37.6506 267.683 37.0284C268.527 36.3977 269.498 36.0824 270.598 36.0824C270.87 36.0824 271.164 36.0994 271.48 36.1335C271.795 36.1676 272.072 36.2145 272.311 36.2741V41.1065C272.055 41.0298 271.701 40.9616 271.25 40.902C270.798 40.8423 270.385 40.8125 270.01 40.8125C269.208 40.8125 268.493 40.9872 267.862 41.3366C267.24 41.6776 266.745 42.1548 266.379 42.7685C266.021 43.3821 265.842 44.0895 265.842 44.8906V56H260.396Z"
    fill="black"
  />
  <path
    d="M21.0682 38C20.7869 37.1392 20.4162 36.3679 19.956 35.6861C19.5043 34.9957 18.9631 34.4077 18.3324 33.9219C17.7102 33.4361 17.0028 33.0653 16.2102 32.8097C15.4176 32.554 14.5483 32.4261 13.6023 32.4261C12.0511 32.4261 10.6406 32.8267 9.37074 33.6278C8.10085 34.429 7.09091 35.6094 6.34091 37.169C5.59091 38.7287 5.21591 40.642 5.21591 42.9091C5.21591 45.1761 5.59517 47.0895 6.35369 48.6491C7.11222 50.2088 8.1392 51.3892 9.43466 52.1903C10.7301 52.9915 12.1875 53.392 13.8068 53.392C15.3068 53.392 16.6278 53.0724 17.7699 52.4332C18.9205 51.7855 19.8153 50.8736 20.4545 49.6974C21.1023 48.5128 21.4261 47.1193 21.4261 45.517L22.3977 45.7216H14.5227V42.9091H24.4943V45.7216C24.4943 47.8778 24.0341 49.7528 23.1136 51.3466C22.2017 52.9403 20.9403 54.1761 19.3295 55.054C17.7273 55.9233 15.8864 56.358 13.8068 56.358C11.4886 56.358 9.4517 55.8125 7.69602 54.7216C5.94886 53.6307 4.58523 52.0795 3.60511 50.0682C2.63352 48.0568 2.14773 45.6705 2.14773 42.9091C2.14773 40.8381 2.42472 38.9759 2.97869 37.3224C3.54119 35.6605 4.33381 34.2457 5.35653 33.0781C6.37926 31.9105 7.58949 31.0156 8.98722 30.3935C10.3849 29.7713 11.9233 29.4602 13.6023 29.4602C14.983 29.4602 16.2699 29.669 17.4631 30.0866C18.6648 30.4957 19.7344 31.0795 20.6719 31.8381C21.6179 32.5881 22.4063 33.4872 23.0369 34.5355C23.6676 35.5753 24.1023 36.7301 24.3409 38H21.0682ZM30.7457 56V36.3636H33.7628V56H30.7457ZM32.2798 33.0909C31.6918 33.0909 31.1847 32.8906 30.7585 32.4901C30.3409 32.0895 30.1321 31.608 30.1321 31.0455C30.1321 30.483 30.3409 30.0014 30.7585 29.6009C31.1847 29.2003 31.6918 29 32.2798 29C32.8679 29 33.3707 29.2003 33.7884 29.6009C34.2145 30.0014 34.4276 30.483 34.4276 31.0455C34.4276 31.608 34.2145 32.0895 33.7884 32.4901C33.3707 32.8906 32.8679 33.0909 32.2798 33.0909ZM47.8285 36.3636V38.9205H37.6523V36.3636H47.8285ZM40.6183 31.6591H43.6353V50.375C43.6353 51.2273 43.7589 51.8665 44.006 52.2926C44.2617 52.7102 44.5856 52.9915 44.9776 53.1364C45.3782 53.2727 45.8001 53.3409 46.2433 53.3409C46.5756 53.3409 46.8484 53.3239 47.0614 53.2898C47.2745 53.2472 47.445 53.2131 47.5728 53.1875L48.1864 55.8977C47.9819 55.9744 47.6964 56.0511 47.3299 56.1278C46.9634 56.2131 46.4989 56.2557 45.9364 56.2557C45.0842 56.2557 44.2489 56.0724 43.4308 55.706C42.6211 55.3395 41.9478 54.7812 41.4109 54.0312C40.8825 53.2812 40.6183 52.3352 40.6183 51.1932V31.6591ZM53.1978 56V29.8182H56.3683V41.4773H70.3285V29.8182H73.4989V56H70.3285V44.2898H56.3683V56H53.1978ZM91.8121 47.9716V36.3636H94.8292V56H91.8121V52.6761H91.6076C91.1474 53.6733 90.4315 54.5213 89.4599 55.2202C88.4883 55.9105 87.261 56.2557 85.7781 56.2557C84.5508 56.2557 83.4599 55.9872 82.5053 55.4503C81.5508 54.9048 80.8008 54.0866 80.2553 52.9957C79.7099 51.8963 79.4371 50.5114 79.4371 48.8409V36.3636H82.4542V48.6364C82.4542 50.0682 82.8548 51.2102 83.6559 52.0625C84.4656 52.9148 85.4968 53.3409 86.7496 53.3409C87.4996 53.3409 88.2624 53.1491 89.038 52.7656C89.8221 52.3821 90.4783 51.794 91.0067 51.0014C91.5437 50.2088 91.8121 49.1989 91.8121 47.9716ZM100.764 56V29.8182H103.781V39.483H104.037C104.259 39.142 104.565 38.7074 104.957 38.179C105.358 37.642 105.929 37.1648 106.67 36.7472C107.42 36.321 108.435 36.108 109.713 36.108C111.366 36.108 112.824 36.5213 114.085 37.348C115.347 38.1747 116.331 39.3466 117.038 40.8636C117.746 42.3807 118.099 44.1705 118.099 46.233C118.099 48.3125 117.746 50.1151 117.038 51.6406C116.331 53.1577 115.351 54.3338 114.098 55.169C112.845 55.9957 111.401 56.4091 109.764 56.4091C108.503 56.4091 107.493 56.2003 106.734 55.7827C105.976 55.3565 105.392 54.875 104.983 54.3381C104.574 53.7926 104.259 53.3409 104.037 52.983H103.679V56H100.764ZM103.73 46.1818C103.73 47.6648 103.947 48.973 104.382 50.1065C104.817 51.2315 105.452 52.1136 106.287 52.7528C107.122 53.3835 108.145 53.6989 109.355 53.6989C110.616 53.6989 111.669 53.3665 112.513 52.7017C113.365 52.0284 114.004 51.125 114.43 49.9915C114.865 48.8494 115.082 47.5795 115.082 46.1818C115.082 44.8011 114.869 43.5568 114.443 42.4489C114.026 41.3324 113.391 40.4503 112.538 39.8026C111.695 39.1463 110.634 38.8182 109.355 38.8182C108.128 38.8182 107.097 39.1293 106.261 39.7514C105.426 40.3651 104.795 41.2259 104.369 42.3338C103.943 43.4332 103.73 44.7159 103.73 46.1818Z"
    fill="black"
  />
  <defs>
    <filter
      id="filter0_d_1_7"
      x="119.6"
      y="0.6"
      width="177.8"
      height="85.8"
      filterUnits="userSpaceOnUse"
      color-interpolation-filters="sRGB"
    >
      <feFlood flood-opacity="0" result="BackgroundImageFix" />
      <feColorMatrix
        in="SourceAlpha"
        type="matrix"
        values="0 0 0 0 0 0 0 0 0 0 0 0 0 0 0 0 0 0 127 0"
        result="hardAlpha"
      />
      <feMorphology
        radius="5"
        operator="erode"
        in="SourceAlpha"
        result="effect1_dropShadow_1_7"
      />
      <feOffset />
      <feGaussianBlur stdDeviation="8.7" />
      <feComposite in2="hardAlpha" operator="out" />
      <feColorMatrix
        type="matrix"
        values="0 0 0 0 0 0 0 0 0 0 0 0 0 0 0 0 0 0 0.25 0"
      />
      <feBlend
        mode="normal"
        in2="BackgroundImageFix"
        result="effect1_dropShadow_1_7"
      />
      <feBlend
        mode="normal"
        in="SourceGraphic"
        in2="effect1_dropShadow_1_7"
        result="shape"
      />
    </filter>
    <linearGradient
      id="paint0_linear_1_7"
      x1="280.5"
      y1="22"
      x2="157.668"
      y2="86.461"
      gradientUnits="userSpaceOnUse"
    >
      <stop stop-color="#7A8490" />
      <stop offset="0.91324" stop-opacity="0" />
    </linearGradient>
  </defs>
</svg>
